<?xml version="1.0" standalone="no"?>
<!DOCTYPE svg PUBLIC "-//W3C//DTD SVG 20010904//EN"
 "http://www.w3.org/TR/2001/REC-SVG-20010904/DTD/svg10.dtd">
<svg version="1.0" xmlns="http://www.w3.org/2000/svg"
 width="300.000000pt" height="300.000000pt" viewBox="0 0 300.000000 300.000000"
 preserveAspectRatio="xMidYMid meet">
<metadata>
Created by potrace 1.11, written by Peter Selinger 2001-2013
</metadata>
<g transform="translate(0.000000,300.000000) scale(0.100000,-0.100000)"
fill="#000000" stroke="none">
<path d="M1075 2940 c-79 -31 -55 -160 30 -160 90 0 121 121 40 158 -30 14
-42 14 -70 2z"/>
<path d="M1836 2925 c-57 -53 -20 -145 59 -145 72 0 107 99 51 147 -35 30 -76
29 -110 -2z"/>
<path d="M1252 2803 c-48 -23 -61 -93 -23 -127 9 -9 31 -19 49 -22 26 -5 36
-1 63 25 26 27 30 37 25 63 -8 39 -20 54 -55 66 -21 7 -36 6 -59 -5z"/>
<path d="M1672 2800 c-75 -46 -29 -164 57 -145 46 10 67 42 62 95 -5 50 -72
78 -119 50z"/>
<path d="M1446 2735 c-34 -32 -35 -77 -1 -110 33 -33 78 -33 112 1 21 21 24
32 19 62 -11 69 -79 94 -130 47z"/>
<path d="M2379 2655 c-51 -28 -59 -104 -14 -142 59 -51 144 -11 145 69 0 28
-7 42 -31 62 -34 29 -61 32 -100 11z"/>
<path d="M515 2635 c-51 -50 -19 -138 53 -149 79 -11 129 98 68 150 -37 32
-89 32 -121 -1z"/>
<path d="M2205 2541 c-46 -20 -63 -75 -39 -123 31 -60 124 -55 150 8 24 58 -2
109 -62 119 -16 2 -38 1 -49 -4z"/>
<path d="M702 2520 c-35 -33 -34 -95 3 -127 81 -71 189 44 115 122 -30 32 -86
34 -118 5z"/>
<path d="M2004 2456 c-70 -30 -65 -130 7 -155 84 -29 151 77 86 137 -31 28
-57 33 -93 18z"/>
<path d="M913 2445 c-58 -40 -40 -131 30 -149 85 -22 140 81 77 144 -24 24
-77 26 -107 5z"/>
<path d="M1132 2403 c-17 -6 -42 -57 -42 -83 0 -12 14 -35 30 -52 26 -25 36
-29 63 -24 70 13 100 94 52 141 -23 24 -69 32 -103 18z"/>
<path d="M1773 2395 c-45 -32 -37 -112 14 -138 83 -43 160 53 102 127 -24 30
-80 36 -116 11z"/>
<path d="M1355 2379 c-52 -30 -62 -93 -20 -134 51 -52 140 -14 138 60 -1 22
-9 45 -20 56 -23 24 -72 33 -98 18z"/>
<path d="M1573 2380 c-48 -20 -58 -95 -18 -135 59 -60 156 -1 134 81 -5 17
-15 37 -22 43 -20 16 -69 22 -94 11z"/>
<path d="M174 2149 c-32 -16 -54 -60 -48 -100 14 -93 134 -119 183 -39 18 31
17 61 -3 111 -14 34 -87 49 -132 28z"/>
<path d="M2716 2139 c-48 -38 -51 -114 -5 -155 27 -24 101 -25 127 -1 35 32
44 68 30 112 -21 64 -98 86 -152 44z"/>
<path d="M455 2102 c-68 -23 -92 -79 -60 -141 28 -55 99 -64 146 -20 49 45 35
125 -26 154 -18 8 -35 15 -37 14 -1 -1 -12 -4 -23 -7z"/>
<path d="M2484 2097 c-54 -28 -70 -97 -34 -147 51 -72 170 -29 170 60 0 30
-30 79 -53 86 -34 11 -64 11 -83 1z"/>
<path d="M665 2035 c-50 -49 -28 -136 38 -153 66 -18 117 22 117 91 0 78 -99
118 -155 62z"/>
<path d="M2205 2034 c-71 -77 14 -192 107 -146 34 18 60 69 50 104 -17 67
-111 92 -157 42z"/>
<path d="M965 2032 c-53 -10 -83 -73 -61 -127 27 -63 115 -72 156 -16 47 67
-13 159 -95 143z"/>
<path d="M1956 2014 c-28 -27 -37 -52 -31 -86 8 -43 30 -66 72 -74 90 -17 145
93 77 154 -30 26 -94 30 -118 6z"/>
<path d="M1198 2005 c-24 -14 -37 -35 -45 -75 -5 -29 19 -69 53 -85 29 -14 37
-14 68 -1 40 17 56 42 56 89 0 63 -74 103 -132 72z"/>
<path d="M1725 2011 c-73 -30 -77 -129 -6 -165 32 -17 67 -11 98 16 45 41 36
116 -18 143 -31 17 -45 18 -74 6z"/>
<path d="M1449 1997 c-67 -52 -40 -154 44 -163 32 -4 43 0 67 25 38 38 39 78
4 120 -20 24 -34 31 -62 31 -21 0 -44 -6 -53 -13z"/>
<path d="M82 1503 c0 -43 4 -80 8 -83 4 -3 66 -3 136 0 149 7 2652 6 2674 -1
12 -3 15 10 16 79 l2 83 -407 -6 c-513 -7 -1538 -6 -2043 1 l-386 5 0 -78z"/>
<path d="M1248 1175 c-1 -1 -69 -6 -150 -9 -80 -4 -155 -8 -165 -10 -10 -2
-54 -7 -97 -11 -43 -4 -86 -8 -95 -10 -9 -1 -43 -6 -76 -9 -33 -4 -71 -9 -85
-11 -14 -3 -41 -7 -60 -9 -97 -13 -339 -62 -348 -70 -6 -6 27 -156 35 -156 2
0 57 13 121 29 64 16 133 32 152 35 19 3 46 8 60 11 31 6 131 23 185 30 22 3
49 7 60 10 11 2 56 7 100 11 44 3 89 8 100 10 93 18 735 26 905 11 47 -4 112
-10 145 -13 33 -3 96 -10 140 -16 44 -5 96 -12 115 -14 19 -3 46 -7 60 -9 14
-3 41 -8 60 -11 19 -3 87 -17 150 -30 139 -30 135 -29 189 -44 23 -6 44 -10
46 -8 8 10 36 150 31 155 -4 4 -12 8 -19 9 -7 1 -39 7 -72 14 -33 7 -67 14
-75 15 -8 1 -33 5 -55 9 -22 4 -51 9 -65 11 -29 4 -94 14 -130 20 -14 3 -47 7
-75 11 -27 3 -61 7 -75 9 -45 6 -123 14 -205 21 -44 3 -100 8 -125 10 -57 5
-677 13 -682 9z"/>
<path d="M1417 804 c-1 -1 -42 -4 -91 -8 -278 -20 -548 -102 -751 -229 -76
-48 -80 -53 -61 -80 45 -64 86 -102 99 -92 205 151 439 237 712 262 134 12
429 4 455 -12 3 -2 26 -6 50 -10 175 -25 443 -140 541 -231 l25 -24 30 32 c54
59 79 99 68 106 -5 4 -31 22 -56 39 -133 94 -388 188 -592 219 -21 3 -47 7
-57 9 -53 10 -363 26 -372 19z"/>
<path d="M1340 406 c-88 -26 -139 -51 -206 -101 -60 -45 -156 -145 -151 -158
1 -5 30 -29 64 -53 l61 -43 28 40 c42 61 119 126 191 160 183 87 413 19 537
-160 l28 -40 61 43 c34 24 63 49 65 55 6 17 -141 154 -209 194 -96 56 -177 79
-294 83 -81 2 -114 -2 -175 -20z"/>
</g>
</svg>
