<?xml version="1.0" encoding="utf-8"?>
<!-- Generator: Adobe Illustrator 24.0.3, SVG Export Plug-In . SVG Version: 6.00 Build 0)  -->
<svg version="1.1" id="Layer_1" xmlns="http://www.w3.org/2000/svg" xmlns:xlink="http://www.w3.org/1999/xlink" x="0px" y="0px"
	 viewBox="0 0 261.5 300" style="enable-background:new 0 0 261.5 300;" xml:space="preserve">
<style type="text/css">
	.st0{fill:#1E1540;}
</style>
<g>
	<path class="st0" d="M187.3,29.1c-3,0-5.4-2.4-5.4-5.4s2.4-5.4,5.4-5.4c3,0,5.4,2.4,5.4,5.4S190.3,29.1,187.3,29.1 M181.3,31
		c0-2.9-2.3-5.2-5.2-5.2c-2.9,0-5.2,2.3-5.2,5.2c0,2.9,2.3,5.2,5.2,5.2C179,36.2,181.3,33.9,181.3,31 M168.8,35.9
		c0-2.9-2.3-5.2-5.2-5.2c-2.9,0-5.2,2.3-5.2,5.2c0,2.9,2.3,5.2,5.2,5.2C166.5,41.1,168.8,38.8,168.8,35.9 M155.7,39.1
		c0-2.8-2.3-5.1-5.1-5.1c-2.8,0-5.1,2.3-5.1,5.1c0,2.8,2.3,5.1,5.1,5.1C153.4,44.2,155.7,41.9,155.7,39.1 M142.3,40.6
		c0-2.8-2.3-5.1-5.1-5.1c-2.8,0-5.1,2.3-5.1,5.1s2.3,5.1,5.1,5.1C140.1,45.7,142.3,43.4,142.3,40.6 M128.9,40.6
		c0-2.8-2.3-5.1-5.1-5.1c-2.8,0-5.1,2.3-5.1,5.1c0,2.8,2.3,5.1,5.1,5.1C126.7,45.7,128.9,43.4,128.9,40.6 M115.6,39.2
		c0-2.8-2.3-5.1-5.1-5.1c-2.8,0-5.1,2.3-5.1,5.1c0,2.8,2.3,5.1,5.1,5.1C113.4,44.3,115.6,42,115.6,39.2 M102.6,36.1
		c0-2.9-2.3-5.2-5.2-5.2s-5.2,2.3-5.2,5.2c0,2.9,2.3,5.2,5.2,5.2S102.6,39,102.6,36.1 M90.2,31.2c0-2.9-2.3-5.2-5.2-5.2
		c-2.9,0-5.2,2.3-5.2,5.2c0,2.9,2.3,5.2,5.2,5.2C87.9,36.5,90.2,34.1,90.2,31.2 M79.1,24c0-3-2.4-5.4-5.4-5.4c-3,0-5.4,2.4-5.4,5.4
		c0,3,2.4,5.4,5.4,5.4C76.6,29.4,79.1,27,79.1,24 M75.2,158.7c7-6.3,24.2-17.1,55.3-17.4c31.1,0.3,48.3,11.2,55.3,17.4l6.4-7.6
		c-5.7-4.8-26.4-18.2-61.7-18.1c-35.4-0.1-56,13.3-61.7,18.1L75.2,158.7z M217.7,85.1c0,0-43.6,0.8-87.2,0.8
		c-43.6,0-87.2-0.8-87.2-0.8v9.9c0,0,43.6-0.8,87.2-0.8c43.6,0,87.2,0.8,87.2,0.8V85.1z M50.8,128.2c6.4-1.7,33.9-9.7,79.7-9.9
		c45.7,0.3,73.2,8.2,79.7,10l2.4-9.7c-6.8-1.5-39.5-8.8-82.1-8.6c-42.6-0.2-75.3,7-82.1,8.6L50.8,128.2z M106.4,179.1
		c2.7-4.3,10.2-14.6,24.1-14.8c14,0.2,21.5,10.5,24.1,14.8l8.1-5.8c-3.9-4.8-14.7-17.5-32.2-17.3c-17.5-0.2-28.4,12.5-32.2,17.3
		L106.4,179.1z M58,55.5c0-3.4-2.7-6.1-6.1-6.1c-3.4,0-6.1,2.7-6.1,6.1c0,3.4,2.7,6.1,6.1,6.1C55.3,61.6,58,58.9,58,55.5 M73.3,58.8
		c0-3.2-2.6-5.8-5.8-5.8c-3.2,0-5.8,2.6-5.8,5.8c0,3.2,2.6,5.8,5.8,5.8C70.7,64.6,73.3,62,73.3,58.8 M88.8,61.2
		c0-3.1-2.5-5.7-5.7-5.7c-3.1,0-5.7,2.5-5.7,5.7c0,3.1,2.5,5.7,5.7,5.7C86.2,66.9,88.8,64.4,88.8,61.2 M104.4,62.9
		c0-3.1-2.5-5.6-5.6-5.6c-3.1,0-5.6,2.5-5.6,5.6c0,3.1,2.5,5.6,5.6,5.6C101.9,68.4,104.4,66,104.4,62.9 M120.2,63.8
		c0-3-2.5-5.5-5.5-5.5s-5.5,2.5-5.5,5.5s2.5,5.5,5.5,5.5S120.2,66.9,120.2,63.8 M136,64.1c0-3-2.4-5.5-5.5-5.5c-3,0-5.5,2.5-5.5,5.5
		c0,3,2.5,5.5,5.5,5.5C133.5,69.6,136,67.1,136,64.1 M151.8,63.8c0-3-2.5-5.5-5.5-5.5c-3,0-5.5,2.5-5.5,5.5c0,3,2.5,5.5,5.5,5.5
		C149.4,69.4,151.8,66.9,151.8,63.8 M167.7,62.9c0-3.1-2.5-5.6-5.6-5.6c-3.1,0-5.6,2.5-5.6,5.6c0,3.1,2.5,5.6,5.6,5.6
		C165.2,68.4,167.7,66,167.7,62.9 M183.6,61.2c0-3.1-2.5-5.7-5.7-5.7c-3.1,0-5.7,2.5-5.7,5.7c0,3.1,2.5,5.7,5.7,5.7
		C181,66.9,183.6,64.4,183.6,61.2 M199.4,58.8c0-3.2-2.6-5.8-5.8-5.8c-3.2,0-5.8,2.6-5.8,5.8c0,3.2,2.6,5.8,5.8,5.8
		C196.8,64.6,199.4,62,199.4,58.8 M215.1,55.5c0-3.4-2.7-6.1-6.1-6.1c-3.4,0-6.1,2.7-6.1,6.1c0,3.4,2.7,6.1,6.1,6.1
		C212.4,61.6,215.1,58.9,215.1,55.5 M111.6,6.2c0-2.8-2.3-5.1-5.1-5.1s-5.1,2.3-5.1,5.1c0,2.8,2.3,5.1,5.1,5.1S111.6,9,111.6,6.2
		 M122.3,14.2c0-2.7-2.2-4.9-4.9-4.9c-2.7,0-4.9,2.2-4.9,4.9s2.2,4.9,4.9,4.9C120.1,19.1,122.3,16.9,122.3,14.2 M135.3,17.5
		c0-2.7-2.2-4.8-4.8-4.8c-2.7,0-4.8,2.2-4.8,4.8c0,2.7,2.2,4.8,4.8,4.8C133.2,22.3,135.3,20.2,135.3,17.5 M148.5,14.2
		c0-2.7-2.2-4.9-4.9-4.9c-2.7,0-4.9,2.2-4.9,4.9s2.2,4.9,4.9,4.9C146.3,19.1,148.5,16.9,148.5,14.2 M159.7,6.2
		c0-2.8-2.3-5.1-5.1-5.1c-2.8,0-5.1,2.3-5.1,5.1c0,2.8,2.3,5.1,5.1,5.1C157.4,11.4,159.7,9,159.7,6.2"/>
	<path class="st0" d="M238.8,242.9v-17.1c0-4.2,2.7-7.9,6.9-7.9c4.3,0,6,3.6,6,7.8v17.2h7.9v-17.2c0-9.6-4.5-15.2-13.6-15.2
		c-4.1,0-7.8,1.3-10.7,5.8c-1.8-4.4-5.6-6-9.5-6c-3,0-6.7,1.2-8.4,4.4l-0.6-3.9h-7.3v32h7.9v-17.1c0-4.2,2.5-8,6.8-8
		c4.3,0,6.5,3.8,6.5,8v17.1H238.8z M181.5,211v32h7.9v-16.9c0-5.9,3.8-8.1,8-8.1c2.6,0,4.1,0.7,5.7,2.1l3.6-6.9
		c-1.8-1.8-4.9-3-8.2-3c-3.2,0-6.5,0.6-9,4.5l-0.6-3.7H181.5z M159.4,217.5c5.3,0,8.7,4.7,8.7,9.5c0,4.9-2.9,9.4-8.7,9.4
		c-5.8,0-8.7-4.5-8.7-9.4C150.7,222.2,153.6,217.5,159.4,217.5z M159.3,210.3c-10.2,0-16.5,7.5-16.5,16.7c0,9.2,6.2,16.7,16.6,16.7
		S176,236.2,176,227C176,217.8,169.5,210.3,159.3,210.3z M131.3,242.9v-24.6h9.4v-6.9h-9.4v-2.1c0-3.9,2.1-5.7,4.8-5.7
		c1.6,0,3.2,0.6,4.9,1.7l2.9-5.9c-2.6-1.7-5.5-2.6-8.3-2.6c-6.4,0-12.2,4-12.2,12.5v2.1h-6v6.9h6v24.6H131.3z M98.1,202.8v8.2h-6
		v6.8h6v13.8c0,8,4.5,11.9,11.5,11.7c2.4-0.1,4.3-0.5,6.5-1.4l-2.2-6.7c-1.2,0.6-2.6,1-3.8,1c-2.5,0-4.1-1.5-4.1-4.5v-13.8h8.9V211
		h-8.8V202L98.1,202.8z M72.3,217.3c12.4,0,12.4,19.4,0,19.4c-5.3,0-9.5-3.6-9.5-9.7C62.8,220.8,67,217.3,72.3,217.3z M81.7,215.4
		c-1.8-3.2-5.9-5.2-10.2-5.2c-9.3-0.1-16.7,5.7-16.7,16.7c0,11.2,7,17.1,16.5,17c3.6-0.1,8.6-1.9,10.4-5.6l0.4,4.7h7.5v-32H82
		L81.7,215.4z M41.9,197.6v45.3h7.8v-45.3H41.9z M9.2,256.3v-17.1c2.3,3.5,7.3,4.5,10.6,4.5c10.2,0,16.1-7.4,16.1-16.7
		c0-9.4-6.5-16.7-16.4-16.7c-3.6,0-7.9,1.6-10.4,5.1L8.7,211H1.3v45.3H9.2z M19,236.1c-5.4,0-9.1-4.1-9.1-9.1c0-5,3.4-9.1,9.1-9.1
		s9.1,4.1,9.1,9.1C28.1,232,24.4,236.1,19,236.1z"/>
	<g>
		<path class="st0" d="M225.9,257.4v8.2h-6v6.8h6v13.8c0,8,4.5,11.9,11.5,11.7c2.4-0.1,4.3-0.5,6.5-1.4l-2.2-6.7
			c-1.2,0.6-2.6,1-3.8,1c-2.5,0-4.1-1.5-4.1-4.5v-13.8h8.9v-6.8h-8.8v-9.1L225.9,257.4z M216.2,268.9c-3.7-3.2-7.5-4.2-12.4-4.2
			c-5.8,0-13.5,2.6-13.5,10c0,7.3,7.2,9.5,13.2,9.9c4.5,0.3,6.4,1.2,6.4,3.4c0,2.3-2.8,3.9-5.8,3.8c-3.6-0.1-8.8-1.9-11-4.5
			l-3.9,5.6c4.7,4.9,9.7,5.7,14.8,5.7c9.1,0,13.7-4.9,13.7-10.5c0-8.5-7.7-9.9-13.7-10.2c-4.1-0.3-6-1.4-6-3.5c0-2,2.1-3.2,5.8-3.2
			c3,0,5.6,0.7,7.9,2.9L216.2,268.9z M152.2,265.6v16.8c0,9.9,5.6,15.7,13.2,15.7c4.5,0,7.5-1.6,10.8-4.8l0.5,4.3h7.1v-32H176v16.3
			c0,4.9-3.3,8.9-8.2,8.9c-5.1,0-7.7-3.7-7.7-8.6v-16.7H152.2z M123.2,265.6v32h7.9v-16.9c0-5.9,3.8-8.1,8-8.1
			c2.6,0,4.1,0.7,5.7,2.1l3.6-6.9c-1.8-1.8-4.9-3-8.2-3c-3.2,0-6.5,0.6-9,4.5l-0.6-3.7H123.2z M100.6,257.4v8.2h-6v6.8h6v13.8
			c0,8,4.5,11.9,11.5,11.7c2.4-0.1,4.3-0.5,6.5-1.4l-2.2-6.7c-1.2,0.6-2.6,1-3.8,1c-2.5,0-4.1-1.5-4.1-4.5v-13.8h8.9v-6.8h-8.8v-9.1
			L100.6,257.4z"/>
		<path class="st0" d="M66.2,298.6V274h9.4v-6.9h-9.4v-2.1c0-3.9,2.1-5.7,4.8-5.7c1.6,0,3.2,0.6,4.9,1.7l2.9-5.9
			c-2.6-1.7-5.5-2.6-8.3-2.6c-6.4,0-12.2,4-12.2,12.5v2.1h-6v6.9h6v24.6H66.2z M33.6,273.2c5.3,0,8.7,4.7,8.7,9.5
			c0,4.9-2.9,9.4-8.7,9.4s-8.7-4.5-8.7-9.4C24.9,277.8,27.9,273.2,33.6,273.2z M33.6,266c-10.2,0-16.5,7.5-16.5,16.7
			c0,9.2,6.2,16.7,16.6,16.7c10.4,0,16.7-7.5,16.7-16.7C50.3,273.5,43.7,266,33.6,266z"/>
	</g>
</g>
</svg>
